<svg xmlns="http://www.w3.org/2000/svg" viewBox="0 0 62.993 62.993"><path d="M62.58 60.594L41.313 39.33c3.712-4.18 5.988-9.66 5.988-15.678C47.3 10.61 36.693.002 23.65.002 10.61 0 0 10.61 0 23.65c0 13.04 10.61 23.65 23.65 23.65 6.017 0 11.498-2.276 15.678-5.988L60.593 62.58a1.403 1.403 0 0 0 1.987 0c.55-.55.55-1.437 0-1.986zM23.65 44.492c-11.49 0-20.84-9.348-20.84-20.84s9.35-20.84 20.84-20.84c11.492 0 20.84 9.348 20.84 20.84 0 5.24-1.957 10.023-5.162 13.69-.62.705-1.28 1.367-1.987 1.986-3.665 3.206-8.448 5.164-13.69 5.164z" fill="#010002"/></svg>